<svg id="logo_Apricot" xmlns="http://www.w3.org/2000/svg" xmlns:xlink="http://www.w3.org/1999/xlink" width="649.989" height="274" viewBox="0 0 649.989 274">
  <defs>
    <style>
      .cls-1 {
        fill: #fff;
      }

      .cls-2 {
        clip-path: url(#clip-path);
      }
    </style>
    <clipPath id="clip-path">
      <rect id="Rectangle_21475" data-name="Rectangle 21475" class="cls-1" width="649.989" height="274"/>
    </clipPath>
  </defs>
  <g id="Group_26662" data-name="Group 26662">
    <g id="Group_26661" data-name="Group 26661" class="cls-2">
      <path id="Path_19752" data-name="Path 19752" class="cls-1" d="M23.465,21.122c-.941-.108,144.293,175.232,144.4,173.725A163.481,163.481,0,0,0,23.465,21.122" transform="translate(12.251 11.03)"/>
      <path id="Path_19753" data-name="Path 19753" class="cls-1" d="M21.913,22.815a163.479,163.479,0,0,0,144.4,173.724c.941.108-144.293-175.231-144.4-173.724" transform="translate(11.233 11.91)"/>
      <path id="Path_19754" data-name="Path 19754" class="cls-1" d="M120.119,175.6H130l14.225-36.235h43.723L201.575,175.6h10.631L167.136,64.348Zm27.4-44.622,19.017-46.566,18.268,46.566Z" transform="translate(62.729 33.604)"/>
      <path id="Path_19755" data-name="Path 19755" class="cls-1" d="M219.094,93.268c-10.033,0-18.419,5.39-23.211,14.525V95.665H187.2v97.476h8.684V148.522c5.092,9.733,13.178,14.823,23.66,14.823,17.516,0,29.947-12.876,29.947-35.038,0-21.112-12.126-35.039-30.4-35.039m0,61.693c-13.029,0-23.06-9.735-23.06-27.254,0-16.918,8.835-26.2,22.161-26.2,13.476,0,21.561,10.179,21.561,26.951,0,17.069-7.935,26.5-20.661,26.5" transform="translate(97.759 48.707)"/>
      <path id="Path_19756" data-name="Path 19756" class="cls-1" d="M249,108.691V95.665h-8.983V160.5H249V128.606c0-16.02,9.586-26.5,19.615-26.5a19.548,19.548,0,0,1,6.139,1.049l2.847-8.535a22.8,22.8,0,0,0-7.637-1.347c-9.132,0-14.524,4.643-20.964,15.422" transform="translate(125.342 48.707)"/>
      <path id="Path_19757" data-name="Path 19757" class="cls-1" d="M277.966,79.264a6.869,6.869,0,0,0-6.89,6.888,6.778,6.778,0,0,0,6.89,6.888,6.89,6.89,0,1,0,0-13.776" transform="translate(141.562 41.393)"/>
      <rect id="Rectangle_21474" data-name="Rectangle 21474" class="cls-1" width="9.286" height="64.836" transform="translate(414.883 144.372)"/>
      <path id="Path_19758" data-name="Path 19758" class="cls-1" d="M322.911,155.708c-15.722,0-26.354-11.529-26.354-26.2,0-16.918,10.035-28.3,26.354-28.3a35.443,35.443,0,0,1,20.217,6.29l.146-9.884c-5.239-2.7-12.427-4.341-20.212-4.341-21.113,0-35.637,14.674-35.637,35.638,0,20.064,13.924,34.739,33.841,34.739,8.683,0,16.47-1.8,23.059-5.39l-.151-9.884c-6.737,4.792-14.074,7.337-21.262,7.337" transform="translate(150.1 48.707)"/>
      <path id="Path_19759" data-name="Path 19759" class="cls-1" d="M364.7,93.268a35.039,35.039,0,0,0,0,70.077,35.307,35.307,0,0,0,35.486-35.189c0-19.465-15.721-34.888-35.486-34.888m.3,61.693c-14.075,0-25.455-11.682-25.455-26.654,0-15.125,11.23-26.654,25.455-26.654,14.076,0,25.456,11.529,25.456,26.654S378.93,154.961,365,154.961" transform="translate(172.238 48.707)"/>
      <path id="Path_19760" data-name="Path 19760" class="cls-1" d="M402.073,103.987V77.333h-8.833v26.654h-11.98v7.635h11.98v57.2h8.833v-57.2H415.1v-7.635Z" transform="translate(199.102 40.385)"/>
    </g>
  </g>
</svg>
