<?xml version="1.0" encoding="UTF-8"?>
<!-- Generator: Adobe Illustrator 23.1.0, SVG Export Plug-In . SVG Version: 6.00 Build 0)  -->
<svg version="1.1" id="Layer_1" xmlns="http://www.w3.org/2000/svg" xmlns:xlink="http://www.w3.org/1999/xlink" x="0px" y="0px" viewBox="0 0 1920 361" style="enable-background:new 0 0 1920 361;" xml:space="preserve">
<style type="text/css">
	.st0{fill:#FDEEFC;}
</style>
<path class="st0" d="M1918.8,159.5c-43.6,5.1-76.8,32.1-76.8,64.7c0,1.2,0,2.3,0.1,3.5c-21.5-3.7-47.2-5.9-74.8-5.9  c-34,0-65.1,3.3-89,8.7c0.3-1.3,0.5-2.7,0.5-4c0-19.8-32.2-35.9-72-35.9c-19,0-36.2,3.7-49,9.6c1.6-3,2.5-6.2,2.5-9.5  c0-19.8-32.2-35.9-72-35.9c-33,0-60.8,11.1-69.3,26.2c-12-1.5-25-2.4-38.7-2.4c-2.1,0-4.2,0-6.2,0.1  c-14.9-13.9-54.8-23.9-101.8-23.9c-6.9,0-13.7,0.2-20.2,0.6c-18.6-5.1-42.4-8.1-68.3-8.1c-31,0-59,4.4-78.7,11.3  c-14.7-2.5-31.2-3.9-48.8-3.9c-47,0-86.9,10-101.8,23.9c-2.1,0-4.1-0.1-6.2-0.1c-24.1,0-46.3,2.6-64.3,7.1  c-28.1-12.8-73.5-21-124.7-21c-51.5,0-97,8.4-125.1,21.2c-7.9-1.2-16.3-1.9-24.9-1.9c-45.2,0-82.8,17.8-91.2,41.4  c-16-7.2-36.5-11.6-58.8-11.6c-11,0-21.5,1.1-31.3,3c-10.2-22.3-46.7-38.7-90.2-38.7c-7.1,0-14,0.5-20.6,1.3  c-8.5-7.9-20.7-14.4-35.4-18.8c-4.5-26.1-44.2-46.5-92.6-46.5c-46,0-84.1,18.4-91.6,42.6c-14.6-5.3-32.1-8.4-50.9-8.4  c-16.9,0-32.8,2.5-46.5,6.9v89c0.8,0.3,1.6,0.5,2.4,0.8L0.2,257v104.3h1918.5v-72.4V159.5H1918.8z"/>
</svg>