<?xml version="1.0" encoding="UTF-8"?>
<!-- Generator: Adobe Illustrator 23.1.0, SVG Export Plug-In . SVG Version: 6.00 Build 0)  -->
<svg version="1.1" id="Layer_1" xmlns="http://www.w3.org/2000/svg" xmlns:xlink="http://www.w3.org/1999/xlink" x="0px" y="0px" viewBox="0 0 1920 361" style="enable-background:new 0 0 1920 361;" xml:space="preserve">
<style type="text/css">
	.st0{fill:#FFFFFF;}
</style>
<path class="st0" d="M1876.1,20.2c-36.1,0-68.1,8-88.3,20.3c-22.4-3.1-48.4-4.8-76.2-4.8c-70.8,0-130.3,11.5-147.1,27  c-17.1-3.9-37.7-6.1-59.9-6.1c-30.1,0-57.3,4.2-76.8,10.9c-20.1-13.2-53.2-21.9-90.8-21.9c-43.3,0-80.7,11.5-99,28.2  c-19.7-7.8-49.1-12.8-81.9-12.8c-20.9,0-40.5,2-57,5.5c-19.3-6.2-45.3-10-74.1-10c-10.1,0-19.9,0.5-29.2,1.4  c-10.7-13-36.3-22.2-66.1-22.2c-23.7,0-44.7,5.8-57.7,14.7c-14.3-3.1-30.4-4.9-47.3-4.9c-13.7,0-26.9,1.2-39.1,3.3  c-18.1-16.9-55.8-28.6-99.5-28.6c-23.3,0-44.9,3.3-62.8,9c-18.7-5.3-42.7-8.4-69-8.4c-11.1,0-21.9,0.6-32,1.6  C511.7,9.2,486.1-0.1,456-0.1c-28.3,0-52.8,8.3-64.3,20.2c-17.4-12-54.1-20.2-96.5-20.2c-47.8,0-88.3,10.5-102.1,25  c-14.9-2.6-31.8-4.1-49.8-4.1c-21.4,0-41.3,2.1-58.1,5.7c-11.2-3.6-24.4-5.7-38.7-5.7c-17.6,0-33.7,3.2-46.2,8.5v54.8  c1,0.4,2,0.8,3,1.2v6.4h-3v271H1920v-244V91.6V24.4C1906.5,21.7,1891.7,20.2,1876.1,20.2z M583.6,91.2c0.1,0.1,0.3,0.3,0.4,0.4h-5.6  C580.1,91.5,581.9,91.4,583.6,91.2z"/>
</svg>