<?xml version="1.0" encoding="UTF-8"?>
<!-- Generator: Adobe Illustrator 23.1.0, SVG Export Plug-In . SVG Version: 6.00 Build 0)  -->
<svg version="1.1" id="Layer_1" xmlns="http://www.w3.org/2000/svg" xmlns:xlink="http://www.w3.org/1999/xlink" x="0px" y="0px" viewBox="0 0 1920 361" style="enable-background:new 0 0 1920 361;" xml:space="preserve">
<style type="text/css">
	.st0{fill:#EAD2E5;}
</style>
<path class="st0" d="M1918.9,169v-24.9c-14.7-5-32-7.9-50.6-7.9c-14.6,0-28.5,1.8-40.9,5c-16-16.2-47.7-27.3-84.2-27.3  c-39.5,0-73.4,12.9-87.8,31.4c-12.7-5.7-28.1-9-44.7-9c-11,0-21.5,1.5-31,4.1c-21.2-14.1-58.1-23.5-100.1-23.5c-8,0-15.9,0.3-23.4,1  c-13.5-15.7-39.3-26.3-68.9-26.3c-29,0-54.3,10.2-68,25.3c-16.6-3.8-35.5-5.9-55.6-5.9c-18.3,0-35.6,1.8-51,4.9  c-18.4-18.6-62.3-31.8-113.6-31.8c-43.2,0-81.2,9.3-103.1,23.4c-22.4-9.8-54-16-89-16c-24.2,0-46.7,2.9-65.7,8  c-17.6-5-38.5-8-60.9-8c-52.2,0-96.1,15.8-109.6,37.4c-2.9-0.1-5.8-0.2-8.8-0.2c-30,0-57.4,4.8-78.4,12.7  c-30.7-8.8-72.4-14.2-118.2-14.2c-2.8,0-5.7,0-8.5,0.1c-31.3-10.1-76-16.4-125.6-16.4c-49.9,0-94.9,6.4-126.2,16.6  c-13-14.3-39.7-24.1-70.4-24.1c-14.3,0-27.7,2.1-39.3,5.8C74.1,101.1,46.1,96,15.3,96c-5,0-10,0.2-14.9,0.4V169v29.4v161.3h1920V169  H1918.9z"/>
</svg>