<?xml version="1.0" encoding="UTF-8"?>
<!-- Generator: Adobe Illustrator 23.1.0, SVG Export Plug-In . SVG Version: 6.00 Build 0)  -->
<svg version="1.1" id="Layer_1" xmlns="http://www.w3.org/2000/svg" xmlns:xlink="http://www.w3.org/1999/xlink" x="0px" y="0px" viewBox="0 0 1920 361" style="enable-background:new 0 0 1920 361;" xml:space="preserve">
<style type="text/css">
	.st0{fill:#CA8FBF;}
</style>
<path class="st0" d="M1919.9,78c-14.6-2.6-30-4-46-4c-74.2,0-136.8,30.2-155.9,71.5c-29.6-23.5-76.3-38.7-128.9-38.7  c-17.6,0-34.6,1.7-50.5,4.9c-28.8-27.2-79.1-45.2-136.4-45.2c-25.4,0-49.4,3.5-70.8,9.9c-22-11.8-49.1-18.7-78.4-18.7  c-63.2,0-116.2,32.4-129.9,75.9c-0.9,0-1.8,0-2.7,0c-41.4,0-77.3-10.2-101.7,11.6c-30.1-35.7-53.5-31.3-88.9-31.3  c-7.5,0-27.1,4.5-43.5,33.1c-39.7-15.8-92.4-25.4-150.1-25.4c-1.1,0-2.1,0-3.2,0C709.5,93.1,667,74,618.5,74  c-41.4,0-78.4,13.9-102.9,35.7C474.9,87.9,413.2,74,344.2,74c-50.1,0-96.4,7.3-133.6,19.7C186.9,54.8,120,26.8,41.3,26.8  c-14.3,0-28.1,0.9-41.4,2.7v160.3v30.8v142L1920,361v-95c1-0.2-1.1,0.6-0.1,0.4V78z"/>
</svg>